<mxfile host="app.diagrams.net" modified="2024-07-07T19:10:28.525Z" agent="Mozilla/5.0 (X11; Linux x86_64) AppleWebKit/537.36 (KHTML, like Gecko) Chrome/126.0.0.0 Safari/537.36" etag="bb1PE8y-rSVa3_HnmtHG" version="24.6.4" type="device" pages="2">
  <diagram name="basic-components" id="iojS-CCnx_bVfTF9nqe0">
    <mxGraphModel dx="782" dy="933" grid="1" gridSize="10" guides="1" tooltips="1" connect="1" arrows="1" fold="1" page="1" pageScale="1" pageWidth="1100" pageHeight="850" math="0" shadow="0">
      <root>
        <mxCell id="0" />
        <mxCell id="1" parent="0" />
        <mxCell id="Sic2H0vIKLADrT_T7rRa-21" value="&lt;font face=&quot;Architects Daughter&quot; style=&quot;font-size: 13px;&quot;&gt;&lt;b style=&quot;font-size: 13px;&quot;&gt;Processor&lt;/b&gt;&lt;/font&gt;" style="rounded=0;whiteSpace=wrap;html=1;verticalAlign=bottom;labelPosition=center;verticalLabelPosition=top;align=center;fontSize=13;fillColor=#f5f5f5;strokeColor=#666666;fontColor=#333333;" vertex="1" parent="1">
          <mxGeometry x="390" y="130" width="520" height="360" as="geometry" />
        </mxCell>
        <mxCell id="Sic2H0vIKLADrT_T7rRa-6" value="&lt;b&gt;L3&lt;/b&gt;" style="rounded=0;whiteSpace=wrap;html=1;fontFamily=Courier New;fillColor=#f8cecc;strokeColor=#b85450;" vertex="1" parent="1">
          <mxGeometry x="450" y="450" width="430" height="30" as="geometry" />
        </mxCell>
        <mxCell id="Sic2H0vIKLADrT_T7rRa-18" value="" style="group" vertex="1" connectable="0" parent="1">
          <mxGeometry x="720" y="160" width="170" height="280" as="geometry" />
        </mxCell>
        <mxCell id="Sic2H0vIKLADrT_T7rRa-9" value="CPU Core n" style="rounded=0;whiteSpace=wrap;html=1;hachureGap=4;fontFamily=Architects Daughter;fontSource=https%3A%2F%2Ffonts.googleapis.com%2Fcss%3Ffamily%3DArchitects%2BDaughter;movable=1;resizable=1;rotatable=1;deletable=1;editable=1;locked=0;connectable=1;labelPosition=center;verticalLabelPosition=top;align=center;verticalAlign=bottom;fontSize=12;fontStyle=1;" vertex="1" parent="Sic2H0vIKLADrT_T7rRa-18">
          <mxGeometry width="170" height="240" as="geometry" />
        </mxCell>
        <mxCell id="Sic2H0vIKLADrT_T7rRa-10" value="&lt;b&gt;ALU&lt;/b&gt;" style="rounded=0;whiteSpace=wrap;html=1;fontFamily=Courier New;fillColor=#fff2cc;strokeColor=#d6b656;" vertex="1" parent="Sic2H0vIKLADrT_T7rRa-18">
          <mxGeometry x="10" y="10" width="150" height="30" as="geometry" />
        </mxCell>
        <mxCell id="Sic2H0vIKLADrT_T7rRa-11" value="&lt;b&gt;CU&lt;/b&gt;" style="rounded=0;whiteSpace=wrap;html=1;fontFamily=Courier New;fillColor=#fff2cc;strokeColor=#d6b656;" vertex="1" parent="Sic2H0vIKLADrT_T7rRa-18">
          <mxGeometry x="10" y="40" width="150" height="30" as="geometry" />
        </mxCell>
        <mxCell id="Sic2H0vIKLADrT_T7rRa-12" style="edgeStyle=orthogonalEdgeStyle;rounded=0;orthogonalLoop=1;jettySize=auto;html=1;exitX=0.25;exitY=1;exitDx=0;exitDy=0;entryX=0.25;entryY=0;entryDx=0;entryDy=0;" edge="1" source="Sic2H0vIKLADrT_T7rRa-13" target="Sic2H0vIKLADrT_T7rRa-15" parent="Sic2H0vIKLADrT_T7rRa-18">
          <mxGeometry relative="1" as="geometry" />
        </mxCell>
        <mxCell id="Sic2H0vIKLADrT_T7rRa-13" value="&lt;b&gt;Registers&lt;/b&gt;" style="rounded=0;whiteSpace=wrap;html=1;fontFamily=Courier New;fillColor=#f8cecc;strokeColor=#b85450;" vertex="1" parent="Sic2H0vIKLADrT_T7rRa-18">
          <mxGeometry x="10" y="80" width="150" height="30" as="geometry" />
        </mxCell>
        <mxCell id="Sic2H0vIKLADrT_T7rRa-14" style="edgeStyle=orthogonalEdgeStyle;rounded=0;orthogonalLoop=1;jettySize=auto;html=1;exitX=0.75;exitY=0;exitDx=0;exitDy=0;entryX=0.75;entryY=1;entryDx=0;entryDy=0;" edge="1" source="Sic2H0vIKLADrT_T7rRa-15" target="Sic2H0vIKLADrT_T7rRa-13" parent="Sic2H0vIKLADrT_T7rRa-18">
          <mxGeometry relative="1" as="geometry" />
        </mxCell>
        <mxCell id="Sic2H0vIKLADrT_T7rRa-15" value="&lt;b&gt;MMU&lt;/b&gt;" style="rounded=0;whiteSpace=wrap;html=1;fontFamily=Courier New;fillColor=#dae8fc;strokeColor=#6c8ebf;" vertex="1" parent="Sic2H0vIKLADrT_T7rRa-18">
          <mxGeometry x="10" y="155" width="150" height="30" as="geometry" />
        </mxCell>
        <mxCell id="Sic2H0vIKLADrT_T7rRa-16" value="&lt;b&gt;L1&lt;/b&gt;" style="rounded=0;whiteSpace=wrap;html=1;fontFamily=Courier New;fillColor=#f8cecc;strokeColor=#b85450;" vertex="1" parent="Sic2H0vIKLADrT_T7rRa-18">
          <mxGeometry x="10" y="200" width="150" height="30" as="geometry" />
        </mxCell>
        <mxCell id="Sic2H0vIKLADrT_T7rRa-17" value="&lt;b&gt;L2&lt;/b&gt;" style="rounded=0;whiteSpace=wrap;html=1;fontFamily=Courier New;fillColor=#f8cecc;strokeColor=#b85450;" vertex="1" parent="Sic2H0vIKLADrT_T7rRa-18">
          <mxGeometry x="10" y="250" width="150" height="30" as="geometry" />
        </mxCell>
        <mxCell id="Sic2H0vIKLADrT_T7rRa-19" value="" style="group" vertex="1" connectable="0" parent="1">
          <mxGeometry x="440" y="160" width="170" height="280" as="geometry" />
        </mxCell>
        <mxCell id="_qikQMmCD5JVBKFu7b-j-10" value="CPU Core 1" style="rounded=0;whiteSpace=wrap;html=1;hachureGap=4;fontFamily=Architects Daughter;fontSource=https%3A%2F%2Ffonts.googleapis.com%2Fcss%3Ffamily%3DArchitects%2BDaughter;movable=1;resizable=1;rotatable=1;deletable=1;editable=1;locked=0;connectable=1;labelPosition=center;verticalLabelPosition=top;align=center;verticalAlign=bottom;fontSize=12;fontStyle=1;" parent="Sic2H0vIKLADrT_T7rRa-19" vertex="1">
          <mxGeometry width="170" height="240" as="geometry" />
        </mxCell>
        <mxCell id="C56rg1Ma0Jg-8kV4Vnkv-4" value="&lt;b&gt;ALU&lt;/b&gt;" style="rounded=0;whiteSpace=wrap;html=1;fontFamily=Courier New;fillColor=#fff2cc;strokeColor=#d6b656;" parent="Sic2H0vIKLADrT_T7rRa-19" vertex="1">
          <mxGeometry x="10" y="10" width="150" height="30" as="geometry" />
        </mxCell>
        <mxCell id="Sic2H0vIKLADrT_T7rRa-1" value="&lt;b&gt;CU&lt;/b&gt;" style="rounded=0;whiteSpace=wrap;html=1;fontFamily=Courier New;fillColor=#fff2cc;strokeColor=#d6b656;" vertex="1" parent="Sic2H0vIKLADrT_T7rRa-19">
          <mxGeometry x="10" y="40" width="150" height="30" as="geometry" />
        </mxCell>
        <mxCell id="Sic2H0vIKLADrT_T7rRa-7" style="edgeStyle=orthogonalEdgeStyle;rounded=0;orthogonalLoop=1;jettySize=auto;html=1;exitX=0.25;exitY=1;exitDx=0;exitDy=0;entryX=0.25;entryY=0;entryDx=0;entryDy=0;" edge="1" parent="Sic2H0vIKLADrT_T7rRa-19" source="Sic2H0vIKLADrT_T7rRa-2" target="Sic2H0vIKLADrT_T7rRa-3">
          <mxGeometry relative="1" as="geometry" />
        </mxCell>
        <mxCell id="Sic2H0vIKLADrT_T7rRa-2" value="&lt;b&gt;Registers&lt;/b&gt;" style="rounded=0;whiteSpace=wrap;html=1;fontFamily=Courier New;fillColor=#f8cecc;strokeColor=#b85450;" vertex="1" parent="Sic2H0vIKLADrT_T7rRa-19">
          <mxGeometry x="10" y="80" width="150" height="30" as="geometry" />
        </mxCell>
        <mxCell id="Sic2H0vIKLADrT_T7rRa-8" style="edgeStyle=orthogonalEdgeStyle;rounded=0;orthogonalLoop=1;jettySize=auto;html=1;exitX=0.75;exitY=0;exitDx=0;exitDy=0;entryX=0.75;entryY=1;entryDx=0;entryDy=0;" edge="1" parent="Sic2H0vIKLADrT_T7rRa-19" source="Sic2H0vIKLADrT_T7rRa-3" target="Sic2H0vIKLADrT_T7rRa-2">
          <mxGeometry relative="1" as="geometry" />
        </mxCell>
        <mxCell id="Sic2H0vIKLADrT_T7rRa-3" value="&lt;b&gt;MMU&lt;/b&gt;" style="rounded=0;whiteSpace=wrap;html=1;fontFamily=Courier New;fillColor=#dae8fc;strokeColor=#6c8ebf;" vertex="1" parent="Sic2H0vIKLADrT_T7rRa-19">
          <mxGeometry x="10" y="155" width="150" height="30" as="geometry" />
        </mxCell>
        <mxCell id="Sic2H0vIKLADrT_T7rRa-4" value="&lt;b&gt;L1&lt;/b&gt;" style="rounded=0;whiteSpace=wrap;html=1;fontFamily=Courier New;fillColor=#f8cecc;strokeColor=#b85450;" vertex="1" parent="Sic2H0vIKLADrT_T7rRa-19">
          <mxGeometry x="10" y="200" width="150" height="30" as="geometry" />
        </mxCell>
        <mxCell id="Sic2H0vIKLADrT_T7rRa-5" value="&lt;b&gt;L2&lt;/b&gt;" style="rounded=0;whiteSpace=wrap;html=1;fontFamily=Courier New;fillColor=#f8cecc;strokeColor=#b85450;" vertex="1" parent="Sic2H0vIKLADrT_T7rRa-19">
          <mxGeometry x="10" y="250" width="150" height="30" as="geometry" />
        </mxCell>
        <mxCell id="Sic2H0vIKLADrT_T7rRa-20" value="..." style="text;html=1;align=center;verticalAlign=middle;whiteSpace=wrap;rounded=0;" vertex="1" parent="1">
          <mxGeometry x="635" y="270" width="60" height="30" as="geometry" />
        </mxCell>
      </root>
    </mxGraphModel>
  </diagram>
  <diagram id="IsoR7kzkYtjIUxYW8Evj" name="Page-2">
    <mxGraphModel grid="1" page="1" gridSize="10" guides="1" tooltips="1" connect="1" arrows="1" fold="1" pageScale="1" pageWidth="1100" pageHeight="850" math="0" shadow="0">
      <root>
        <mxCell id="0" />
        <mxCell id="1" parent="0" />
      </root>
    </mxGraphModel>
  </diagram>
</mxfile>
